<svg width="30" height="30" viewBox="0 0 30 30" fill="none" xmlns="http://www.w3.org/2000/svg">
<g id="dribbble-dribble-dribbbble-svgrepo-com 1" clip-path="url(#clip0_35_40)">
<g id="Group">
<path id="Vector" d="M14.25 10.5938C12.5625 7.40625 10.7812 4.40625 8.90625 1.40625C4.3125 3.375 0.9375 7.6875 0.1875 12.8437C4.6875 12.9375 9.375 12.1875 14.25 10.5938Z" fill="white" fill-opacity="0.87"/>
<path id="Vector_2" d="M16.0313 9.9375C19.4063 8.625 22.6875 6.9375 26.0625 4.875C23.25 1.875 19.4062 0 15 0C13.5 0 12 0.1875 10.6875 0.65625C12.5625 3.65625 14.3438 6.75 16.0313 9.9375Z" fill="white" fill-opacity="0.87"/>
<path id="Vector_3" d="M18.6562 15.4688C21.375 14.7188 24.2812 14.25 27.1875 14.25C28.125 14.25 28.9688 14.25 29.9062 14.3438C29.8125 11.3438 28.7812 8.53125 27.1875 6.28125C23.7188 8.53125 20.25 10.3125 16.875 11.625C17.4375 12.9375 18.0937 14.1562 18.6562 15.4688Z" fill="white" fill-opacity="0.87"/>
<path id="Vector_4" d="M16.875 16.0313C16.3125 14.7188 15.6562 13.5 15 12.1875C10.3125 13.7812 5.71875 14.625 1.3125 14.625C0.84375 14.625 0.46875 14.625 0 14.625C0 14.7188 0 14.8125 0 15C0 18.75 1.40625 22.125 3.65625 24.75C7.40625 20.7187 11.9062 17.8125 16.875 16.0313Z" fill="white" fill-opacity="0.87"/>
<path id="Vector_5" d="M27.2813 16.2188C24.6563 16.2188 22.0312 16.5938 19.5 17.25C21 20.5313 22.2188 24 23.4375 27.4688C27.0938 25.0312 29.5313 21 30 16.4063C29.0625 16.2188 28.125 16.2188 27.2813 16.2188Z" fill="white" fill-opacity="0.87"/>
<path id="Vector_6" d="M17.7187 17.8125C12.9375 19.4062 8.625 22.2188 4.96875 26.1562C7.59375 28.5 11.1562 30 15 30C17.4375 30 19.6875 29.4375 21.75 28.4062C20.5313 24.75 19.2187 21.2812 17.7187 17.8125Z" fill="white" fill-opacity="0.87"/>
</g>
</g>
<defs>
<clipPath id="clip0_35_40">
<rect width="30" height="30" fill="white"/>
</clipPath>
</defs>
</svg>
