<svg width="30" height="30" viewBox="0 0 30 30" fill="none" xmlns="http://www.w3.org/2000/svg">
<g id="figma-svgrepo-com 1" clip-path="url(#clip0_35_38)">
<path id="Vector" d="M15 15C15 8.33527 25.0003 8.33527 25.0003 15C25.0003 21.6646 15 21.6646 15 15ZM4.99969 25.0003C4.99969 22.2365 7.23562 20.0006 9.99937 20.0006H14.9991V25.0003C14.9991 31.665 4.99875 31.665 4.99875 25.0003H4.99969ZM15 -3.90624e-05V10.0003H19.9997C26.6644 10.0003 26.6644 -3.90624e-05 19.9997 -3.90624e-05H15ZM4.99969 4.99965C4.99969 7.7634 7.23562 9.99934 9.99937 9.99934H14.9991V-0.000976562H9.99937C7.23562 -0.000976562 4.99969 2.23496 4.99969 4.99871V4.99965ZM4.99969 15C4.99969 17.7637 7.23562 20.0006 9.99937 20.0006H14.9991V9.99934H9.99937C7.23562 9.99934 4.99969 12.2362 4.99969 15Z" fill="white" fill-opacity="0.87"/>
</g>
<defs>
<clipPath id="clip0_35_38">
<rect width="30" height="30" fill="white"/>
</clipPath>
</defs>
</svg>
