<svg width="30" height="30" viewBox="0 0 30 30" fill="none" xmlns="http://www.w3.org/2000/svg">
<g id="stackoverflow-svgrepo-com 1" clip-path="url(#clip0_35_57)">
<path id="Vector" d="M21.7 25.25V18.525H23.9375V27.5H3.75V18.525H6V25.25H21.7ZM8.4625 17.9L8.925 15.7L19.9125 18.0125L19.45 20.2125L8.4625 17.9ZM9.9125 12.6375L10.8625 10.625L21.0375 15.35L20.0875 17.375L9.9125 12.6375ZM12.7375 7.63751L14.175 5.91251L22.8 13.1125L21.3625 14.825L12.7375 7.63751ZM18.3 2.32501L25 11.35L23.2 12.6875L16.5 3.67501L18.3 2.33751M8.3 23.0125V20.7625H19.55V23.0125H8.3Z" fill="white" fill-opacity="0.87"/>
</g>
<defs>
<clipPath id="clip0_35_57">
<rect width="30" height="30" fill="white"/>
</clipPath>
</defs>
</svg>
