<svg width="30" height="30" viewBox="0 0 30 30" fill="none" xmlns="http://www.w3.org/2000/svg">
<g id="twitter-154-svgrepo-com 1">
<g id="Page-1">
<g id="Dribbble-Light-Preview">
<g id="icons">
<path id="twitter-[#154]" fill-rule="evenodd" clip-rule="evenodd" d="M9.435 26.9997C20.7555 26.9997 26.9475 17.765 26.9475 9.75775C26.9475 9.49487 26.9475 9.23398 26.9295 8.97406C28.134 8.1175 29.1735 7.05398 30 5.83709C28.878 6.3274 27.6855 6.64894 26.466 6.79071C27.75 6.0331 28.7115 4.84286 29.172 3.43841C27.963 4.14433 26.6415 4.64253 25.263 4.90985C22.932 2.47014 19.0335 2.35194 16.554 4.64691C14.9565 6.12667 14.277 8.33298 14.7735 10.4374C9.825 10.1923 5.214 7.89145 2.088 4.10638C0.4545 6.8754 1.29 10.4164 3.9945 12.1945C3.015 12.1665 2.0565 11.9068 1.2 11.4372V11.5141C1.2015 14.3983 3.267 16.8818 6.138 17.4533C5.232 17.697 4.281 17.7323 3.36 17.5566C4.1655 20.0258 6.477 21.7171 9.1095 21.7658C6.93 23.4523 4.2375 24.3681 1.4655 24.3652C0.9765 24.3637 0.4875 24.3356 0 24.278C2.8155 26.0561 6.09 26.9997 9.435 26.9953" fill="white" fill-opacity="0.87"/>
</g>
</g>
</g>
</g>
</svg>
